<svg xmlns="http://www.w3.org/2000/svg" viewBox="-120 -120 1140 900" width="2000" height="1579" font-family="DejaVu Sans, Helvetica, Arial, sans-serif">
<defs><pattern id="dusukGuven" width="30" height="30" patternUnits="userSpaceOnUse" patternTransform="rotate(45)"><rect width="30" height="30" fill="#fdf6ec"/><line x1="0" y1="0" x2="0" y2="30" stroke="#d9b98a" stroke-width="3"/></pattern></defs>
<rect x="-120" y="-120" width="1140" height="900" fill="#ffffff"/>
<path d="M0 0 L217 0 L217 348 L0 348 Z" fill="#faf8f4" stroke="none"/>
<path d="M217 0 L900 0 L900 348 L217 348 Z" fill="#faf8f4" stroke="none"/>
<path d="M0 348 L557 348 L557 600 L0 600 Z" fill="#faf8f4" stroke="none"/>
<path d="M557 348 L900 348 L900 600 L557 600 Z" fill="#faf8f4" stroke="none"/>
<line x1="0" y1="0" x2="0" y2="104" stroke="#26221d" stroke-width="20" stroke-linecap="butt"/>
<line x1="0" y1="244" x2="0" y2="348" stroke="#26221d" stroke-width="20" stroke-linecap="butt"/>
<line x1="0" y1="348" x2="0" y2="600" stroke="#26221d" stroke-width="20" stroke-linecap="butt"/>
<line x1="217" y1="0" x2="217" y2="129" stroke="#3d3830" stroke-width="10" stroke-linecap="butt"/>
<line x1="217" y1="219" x2="217" y2="348" stroke="#3d3830" stroke-width="10" stroke-linecap="butt"/>
<line x1="557" y1="348" x2="557" y2="600" stroke="#3d3830" stroke-width="10" stroke-linecap="butt"/>
<line x1="900" y1="0" x2="900" y2="348" stroke="#26221d" stroke-width="20" stroke-linecap="butt"/>
<line x1="900" y1="348" x2="900" y2="600" stroke="#26221d" stroke-width="20" stroke-linecap="butt"/>
<line x1="0" y1="0" x2="58.5" y2="0" stroke="#26221d" stroke-width="20" stroke-linecap="butt"/>
<line x1="158.5" y1="0" x2="217" y2="0" stroke="#26221d" stroke-width="20" stroke-linecap="butt"/>
<line x1="217" y1="0" x2="488.5" y2="0" stroke="#26221d" stroke-width="20" stroke-linecap="butt"/>
<line x1="628.5" y1="0" x2="900" y2="0" stroke="#26221d" stroke-width="20" stroke-linecap="butt"/>
<line x1="0" y1="348" x2="63.5" y2="348" stroke="#3d3830" stroke-width="10" stroke-linecap="butt"/>
<line x1="153.5" y1="348" x2="217" y2="348" stroke="#3d3830" stroke-width="10" stroke-linecap="butt"/>
<line x1="217" y1="348" x2="557" y2="348" stroke="#3d3830" stroke-width="10" stroke-linecap="butt"/>
<line x1="557" y1="348" x2="683.5" y2="348" stroke="#3d3830" stroke-width="10" stroke-linecap="butt"/>
<line x1="773.5" y1="348" x2="900" y2="348" stroke="#3d3830" stroke-width="10" stroke-linecap="butt"/>
<line x1="0" y1="600" x2="208.5" y2="600" stroke="#26221d" stroke-width="20" stroke-linecap="butt"/>
<line x1="348.5" y1="600" x2="557" y2="600" stroke="#26221d" stroke-width="20" stroke-linecap="butt"/>
<line x1="557" y1="600" x2="658.5" y2="600" stroke="#26221d" stroke-width="20" stroke-linecap="butt"/>
<line x1="798.5" y1="600" x2="900" y2="600" stroke="#26221d" stroke-width="20" stroke-linecap="butt"/>
<path d="M158.5 0 A100 100 0 0 1 58.5 100" fill="none" stroke="#a05a2c" stroke-width="2.5" stroke-dasharray="8 6"/>
<line x1="58.5" y1="0" x2="58.5" y2="100" stroke="#a05a2c" stroke-width="5"/>
<path d="M217 219 A90 90 0 0 1 127 129" fill="none" stroke="#a05a2c" stroke-width="2.5" stroke-dasharray="8 6"/>
<line x1="217" y1="129" x2="127" y2="129" stroke="#a05a2c" stroke-width="5"/>
<path d="M153.5 348 A90 90 0 0 1 63.5 438" fill="none" stroke="#a05a2c" stroke-width="2.5" stroke-dasharray="8 6"/>
<line x1="63.5" y1="348" x2="63.5" y2="438" stroke="#a05a2c" stroke-width="5"/>
<path d="M773.5 348 A90 90 0 0 1 683.5 438" fill="none" stroke="#a05a2c" stroke-width="2.5" stroke-dasharray="8 6"/>
<line x1="683.5" y1="348" x2="683.5" y2="438" stroke="#a05a2c" stroke-width="5"/>
<line x1="0" y1="104" x2="0" y2="244" stroke="#4a7fa5" stroke-width="7"/>
<line x1="10" y1="104" x2="-10" y2="104" stroke="#4a7fa5" stroke-width="2.5"/>
<line x1="10" y1="244" x2="-10" y2="244" stroke="#4a7fa5" stroke-width="2.5"/>
<line x1="488.5" y1="0" x2="628.5" y2="0" stroke="#4a7fa5" stroke-width="7"/>
<line x1="488.5" y1="-10" x2="488.5" y2="10" stroke="#4a7fa5" stroke-width="2.5"/>
<line x1="628.5" y1="-10" x2="628.5" y2="10" stroke="#4a7fa5" stroke-width="2.5"/>
<line x1="208.5" y1="600" x2="348.5" y2="600" stroke="#4a7fa5" stroke-width="7"/>
<line x1="208.5" y1="590" x2="208.5" y2="610" stroke="#4a7fa5" stroke-width="2.5"/>
<line x1="348.5" y1="590" x2="348.5" y2="610" stroke="#4a7fa5" stroke-width="2.5"/>
<line x1="658.5" y1="600" x2="798.5" y2="600" stroke="#4a7fa5" stroke-width="7"/>
<line x1="658.5" y1="590" x2="658.5" y2="610" stroke="#4a7fa5" stroke-width="2.5"/>
<line x1="798.5" y1="590" x2="798.5" y2="610" stroke="#4a7fa5" stroke-width="2.5"/>
<text x="108.5" y="168" text-anchor="middle" font-size="19" font-weight="600" fill="#26221d">Hol</text>
<text x="108.5" y="193" text-anchor="middle" font-size="16" fill="#57503f">7.6 m²</text>
<text x="558.5" y="168" text-anchor="middle" font-size="26" font-weight="600" fill="#26221d">Salon</text>
<text x="558.5" y="198" text-anchor="middle" font-size="22" fill="#57503f">23.8 m²</text>
<text x="278.5" y="468" text-anchor="middle" font-size="26" font-weight="600" fill="#26221d">Yatak Odası</text>
<text x="278.5" y="498" text-anchor="middle" font-size="22" fill="#57503f">14.0 m²</text>
<text x="728.5" y="468" text-anchor="middle" font-size="26" font-weight="600" fill="#26221d">Mutfak</text>
<text x="728.5" y="498" text-anchor="middle" font-size="22" fill="#57503f">8.6 m²</text>
<text x="-90" y="-75" font-size="26" font-weight="700" fill="#26221d">PERGEL FAZ A yeşil-fixture — 2+1 · 54 m2 dikdörtgen sınır · A1 —</text>
<text x="-90" y="-44" font-size="26" font-weight="700" fill="#26221d">ıslak: tekil · sirkülasyon: karma-hol · zon: ayrik · giriş: alt</text>
<text x="-90" y="-11" font-size="17" fill="#57503f">birim: cm · 1 birim = 1 cm · ölçü kaynağı: turetilmis</text>
<rect x="-90" y="740" width="50" height="10" fill="#26221d" stroke="#26221d" stroke-width="1.5"/>
<rect x="-40" y="740" width="50" height="10" fill="#ffffff" stroke="#26221d" stroke-width="1.5"/>
<rect x="10" y="740" width="50" height="10" fill="#26221d" stroke="#26221d" stroke-width="1.5"/>
<rect x="60" y="740" width="50" height="10" fill="#ffffff" stroke="#26221d" stroke-width="1.5"/>
<text x="-90" y="732" font-size="15" fill="#57503f">0</text>
<text x="10" y="732" font-size="15" fill="#57503f">1 m</text>
<text x="110" y="732" font-size="15" fill="#57503f">2 m</text>
</svg>